<svg xmlns="http://www.w3.org/2000/svg" version="1.1" xmlns:xlink="http://www.w3.org/1999/xlink" width="512" height="512" x="0" y="0" viewBox="0 0 512 512" style="enable-background:new 0 0 512 512" xml:space="preserve" class=""><g><g xmlns="http://www.w3.org/2000/svg"><path d="m267.646 212.536c-11.609-3.11-23.736-1.514-34.146 4.496-10.409 6.01-17.855 15.714-20.967 27.324-3.111 11.611-1.515 23.738 4.496 34.147 6.01 10.409 15.714 17.856 27.324 20.967 3.877 1.039 7.811 1.553 11.72 1.553 7.797 0 15.493-2.045 22.427-6.048 21.488-12.406 28.877-39.982 16.471-61.471-6.01-10.41-15.714-17.856-27.325-20.968zm-4.146 56.458c-3.47 2.003-7.513 2.535-11.382 1.499-3.87-1.037-7.104-3.519-9.108-6.99-2.004-3.47-2.536-7.512-1.499-11.382s3.52-7.105 6.989-9.108c2.312-1.334 4.876-2.016 7.476-2.016 1.303 0 2.614.171 3.906.518 3.87 1.037 7.104 3.519 9.108 6.989 4.136 7.162 1.673 16.354-5.49 20.49z" fill="#ffffff" data-original="#000000" class=""></path><path d="m405.205 169.775c11.234-44.875 18.361-111.475-21.705-134.608-40.094-23.15-94.258 16.398-127.5 48.577-33.308-32.244-87.438-71.71-127.5-48.577-40.066 23.132-32.939 89.73-21.705 134.607-44.66 12.645-106.795 39.79-106.795 86.229 0 46.44 62.132 73.581 106.794 86.229-11.233 44.87-18.362 111.475 21.706 134.608 39.969 23.076 94.156-16.301 127.5-48.578 33.2 32.139 87.41 71.722 127.5 48.578 40.059-23.128 32.944-89.711 21.705-134.607 44.658-12.646 106.795-39.789 106.795-86.23 0-46.439-62.134-73.582-106.795-86.228zm-36.705-108.627c14.578 8.417 19.314 37.294 12.67 77.245-1.304 7.84-3.016 15.948-5.098 24.264-19.211-4.007-39.693-7.026-61.002-8.985-12.362-17.477-25.226-33.691-38.303-48.291 6.174-5.974 12.353-11.524 18.503-16.584 17.978-14.791 53.486-39.047 73.23-27.649zm-11.824 229.867c4.065 9.969 7.72 19.813 10.939 29.468-9.971 2.026-20.318 3.771-30.97 5.225 3.491-5.646 6.925-11.381 10.288-17.205 3.358-5.816 6.603-11.649 9.743-17.488zm-35.724 2.488c-7.209 12.486-14.732 24.54-22.481 36.072-13.866.941-28.064 1.428-42.471 1.428s-28.606-.487-42.471-1.428c-7.749-11.532-15.272-23.586-22.481-36.072-7.208-12.484-13.884-25.025-19.997-37.5 6.112-12.475 12.789-25.016 19.997-37.5 7.209-12.486 14.732-24.54 22.481-36.072 13.866-.941 28.064-1.428 42.471-1.428s28.606.487 42.471 1.428c7.748 11.532 15.272 23.586 22.481 36.072 7.208 12.484 13.884 25.025 19.997 37.5-6.113 12.475-12.789 25.016-19.997 37.5zm-64.952 91.364c-6.74-7.604-13.427-15.678-20.016-24.169 6.628.199 13.302.305 20.017.305 6.714 0 13.389-.106 20.016-.305-6.59 8.491-13.277 16.565-20.017 24.169zm-90.933-76.364c3.363 5.824 6.797 11.559 10.288 17.205-10.653-1.454-20.999-3.199-30.97-5.225 3.219-9.655 6.874-19.499 10.939-29.468 3.14 5.839 6.385 11.672 9.743 17.488zm-9.743-87.511c-4.065-9.969-7.72-19.813-10.939-29.468 9.971-2.026 20.317-3.771 30.97-5.225-3.491 5.646-6.925 11.381-10.288 17.205-3.358 5.815-6.603 11.649-9.743 17.488zm100.676-93.852c6.74 7.604 13.427 15.678 20.016 24.169-6.628-.199-13.302-.305-20.016-.305s-13.389.106-20.016.305c6.589-8.491 13.276-16.565 20.016-24.169zm90.933 76.363c-3.362-5.824-6.796-11.559-10.288-17.205 10.652 1.454 20.999 3.2 30.97 5.225-3.219 9.655-6.874 19.499-10.939 29.468-3.14-5.838-6.385-11.672-9.743-17.488zm-216.103-65.111c-6.645-39.951-1.908-68.828 12.67-77.245 14.58-8.416 41.955 1.919 73.23 27.65 6.15 5.06 12.329 10.609 18.503 16.584-13.078 14.6-25.941 30.814-38.303 48.291-21.309 1.959-41.791 4.978-61.002 8.985-2.082-8.316-3.794-16.424-5.098-24.265zm-39.796 167.196c-38.218-14.25-61.034-32.786-61.034-49.585s22.816-35.335 61.034-49.585c7.613-2.839 15.674-5.45 24.108-7.839 6.111 18.659 13.734 37.942 22.706 57.423-8.972 19.481-16.595 38.765-22.706 57.423-8.434-2.387-16.495-4.999-24.108-7.837zm52.466 145.271c-14.579-8.417-19.315-37.294-12.67-77.245 1.304-7.84 3.016-15.949 5.098-24.264 19.211 4.007 39.694 7.026 61.003 8.985 12.362 17.477 25.225 33.691 38.303 48.291-6.174 5.975-12.353 11.524-18.503 16.584-31.276 25.729-58.653 36.064-73.231 27.649zm237.67-77.245c6.645 39.951 1.908 68.828-12.67 77.245-14.575 8.418-41.955-1.919-73.231-27.65-6.15-5.06-12.329-10.609-18.502-16.583 13.078-14.6 25.941-30.814 38.304-48.291 21.309-1.959 41.791-4.978 61.002-8.985 2.081 8.315 3.793 16.424 5.097 24.264zm39.795-68.026c-7.613 2.838-15.673 5.45-24.107 7.838-6.111-18.659-13.734-37.942-22.706-57.423 8.972-19.481 16.594-38.765 22.706-57.423 8.434 2.388 16.495 5 24.107 7.838 38.219 14.25 61.035 32.787 61.035 49.585s-22.816 35.336-61.035 49.585z" fill="#ffffff" data-original="#000000" class=""></path></g></g></svg>